<svg width="24" height="24" viewBox="0 0 24 24" fill="none" xmlns="http://www.w3.org/2000/svg">
<rect width="24" height="24" rx="12" fill="#F2F2F2"/>
<path d="M14.8456 10.4372H14.7339C14.3042 10.4372 13.9525 10.7888 13.9525 11.2186V15.1256C13.9525 15.5553 14.3042 15.907 14.7339 15.907H14.8456C15.2753 15.907 15.627 15.5553 15.627 15.1256V11.2186C15.627 10.7888 15.2753 10.4372 14.8456 10.4372ZM11.72 8.09302C11.2902 8.09302 10.9386 8.44465 10.9386 8.87441V15.1256C10.9386 15.5553 11.2902 15.907 11.72 15.907C12.1497 15.907 12.5014 15.5553 12.5014 15.1256V8.87441C12.5014 8.44465 12.1497 8.09302 11.72 8.09302ZM8.59439 12.5581C8.16463 12.5581 7.813 12.9098 7.813 13.3395V15.1256C7.813 15.5553 8.16463 15.907 8.59439 15.907C9.02416 15.907 9.37579 15.5553 9.37579 15.1256V13.3395C9.37579 12.9098 9.02416 12.5581 8.59439 12.5581Z" fill="#2D865B"/>
</svg>
