<svg width="24" height="24" viewBox="0 0 24 24" fill="none" xmlns="http://www.w3.org/2000/svg">
<rect width="24" height="24" rx="12" fill="#F2F2F2"/>
<path d="M11.7214 6.4187C9.56143 6.4187 7.81445 8.16568 7.81445 10.3257C7.81445 12.6531 10.2814 15.8624 11.2972 17.0847C11.5205 17.3527 11.9279 17.3527 12.1512 17.0847C13.1614 15.8624 15.6284 12.6531 15.6284 10.3257C15.6284 8.16568 13.8814 6.4187 11.7214 6.4187ZM11.7214 11.721C10.9512 11.721 10.3261 11.0959 10.3261 10.3257C10.3261 9.55545 10.9512 8.93033 11.7214 8.93033C12.4917 8.93033 13.1168 9.55545 13.1168 10.3257C13.1168 11.0959 12.4917 11.721 11.7214 11.721Z" fill="#2D865B"/>
</svg>
