<svg width="17" height="16" viewBox="0 0 17 16" fill="none" xmlns="http://www.w3.org/2000/svg">
<path fill-rule="evenodd" clip-rule="evenodd" d="M9.5988 1.59998C9.77535 1.59992 9.94696 1.65827 10.0869 1.76593C10.2268 1.87358 10.3272 2.02451 10.3724 2.19518L11.3156 5.75997L13.9988 7.30718C14.1204 7.37739 14.2214 7.47838 14.2916 7.59999C14.3618 7.7216 14.3987 7.85955 14.3987 7.99997C14.3987 8.1404 14.3618 8.27835 14.2916 8.39996C14.2214 8.52157 14.1204 8.62256 13.9988 8.69277L11.3156 10.2408L10.3716 13.8048C10.3263 13.9753 10.2259 14.126 10.0861 14.2336C9.94628 14.3411 9.77481 14.3994 9.5984 14.3994C9.42199 14.3994 9.25052 14.3411 9.11068 14.2336C8.97085 14.126 8.87048 13.9753 8.8252 13.8048L7.882 10.24L5.1988 8.69277C5.07719 8.62256 4.97621 8.52157 4.906 8.39996C4.8358 8.27835 4.79883 8.1404 4.79883 7.99997C4.79883 7.85955 4.8358 7.7216 4.906 7.59999C4.97621 7.47838 5.07719 7.37739 5.1988 7.30718L7.882 5.75917L8.826 2.19518C8.87116 2.02464 8.97143 1.87381 9.11119 1.76617C9.25096 1.65852 9.42239 1.6001 9.5988 1.59998Z" fill="#00C853"/>
<path d="M4.56529 9.83428C4.41526 9.68425 4.21178 9.59998 3.99961 9.59998C3.78743 9.59998 3.58395 9.68425 3.43392 9.83428C3.28389 9.98431 3.19961 10.1878 3.19961 10.4V11.2H2.39961C2.18743 11.2 1.98395 11.2843 1.83392 11.4343C1.68389 11.5843 1.59961 11.7878 1.59961 12C1.59961 12.2121 1.68389 12.4156 1.83392 12.5657C1.98395 12.7157 2.18743 12.8 2.39961 12.8H3.19961V13.6C3.19961 13.8121 3.28389 14.0156 3.43392 14.1657C3.58395 14.3157 3.78743 14.4 3.99961 14.4C4.21178 14.4 4.41526 14.3157 4.56529 14.1657C4.71532 14.0156 4.79961 13.8121 4.79961 13.6V12.8H5.59961C5.81178 12.8 6.01526 12.7157 6.16529 12.5657C6.31532 12.4156 6.39961 12.2121 6.39961 12C6.39961 11.7878 6.31532 11.5843 6.16529 11.4343C6.01526 11.2843 5.81178 11.2 5.59961 11.2H4.79961V10.4C4.79961 10.1878 4.71532 9.98431 4.56529 9.83428Z" fill="#00C853"/>
<path d="M4.56529 1.83429C4.41526 1.68426 4.21178 1.59998 3.99961 1.59998C3.78743 1.59998 3.58395 1.68426 3.43392 1.83429C3.28389 1.98432 3.19961 2.1878 3.19961 2.39998V3.19998H2.39961C2.18743 3.19998 1.98395 3.28426 1.83392 3.43429C1.68389 3.58432 1.59961 3.7878 1.59961 3.99998C1.59961 4.21215 1.68389 4.41563 1.83392 4.56566C1.98395 4.71569 2.18743 4.79998 2.39961 4.79998H3.19961V5.59998C3.19961 5.81215 3.28389 6.01563 3.43392 6.16566C3.58395 6.31569 3.78743 6.39997 3.99961 6.39997C4.21178 6.39997 4.41526 6.31569 4.56529 6.16566C4.71532 6.01563 4.79961 5.81215 4.79961 5.59998V4.79998H5.59961C5.81178 4.79998 6.01526 4.71569 6.16529 4.56566C6.31532 4.41563 6.39961 4.21215 6.39961 3.99998C6.39961 3.7878 6.31532 3.58432 6.16529 3.43429C6.01526 3.28426 5.81178 3.19998 5.59961 3.19998H4.79961V2.39998C4.79961 2.1878 4.71532 1.98432 4.56529 1.83429Z" fill="#00C853"/>
</svg>
