<svg width="15" height="16" viewBox="0 0 15 16" fill="none" xmlns="http://www.w3.org/2000/svg">
<path d="M6.94216 1.6041C7.17333 1.14656 7.82667 1.14657 8.05784 1.6041L9.59024 4.63708C9.68113 4.81699 9.85322 4.94202 10.0524 4.97287L13.4105 5.49302C13.9171 5.57149 14.119 6.19286 13.7552 6.5541L11.3442 8.94873C11.2012 9.09078 11.1355 9.29307 11.1677 9.49205L11.7107 12.8465C11.7926 13.3525 11.2641 13.7366 10.8081 13.5023L7.78564 11.9493C7.60635 11.8571 7.39365 11.8571 7.21436 11.9493L4.19189 13.5023C3.73594 13.7366 3.20737 13.3525 3.28928 12.8465L3.83229 9.49205C3.8645 9.29307 3.79877 9.09078 3.65576 8.94873L1.24476 6.5541C0.881049 6.19286 1.08294 5.57149 1.58952 5.49302L4.94759 4.97287C5.14678 4.94202 5.31887 4.81699 5.40977 4.63708L6.94216 1.6041Z" fill="#FBCF01"/>
</svg>
