<svg width="98" height="27" viewBox="0 0 98 27" fill="none" xmlns="http://www.w3.org/2000/svg">
<rect x="0.242188" y="0.964844" width="97" height="25.0799" rx="8.02556" fill="#C9FCE3" fill-opacity="0.4"/>
<g clip-path="url(#clip0_4211_35704)">
<path d="M52.2521 8.98757H50.1554C49.9448 8.40572 49.393 7.98438 48.7409 7.98438C48.0889 7.98438 47.5371 8.40572 47.3264 8.98757H45.2298C44.678 8.98757 44.2266 9.43901 44.2266 9.99077V17.0131C44.2266 17.5649 44.678 18.0163 45.2298 18.0163H52.2521C52.8039 18.0163 53.2553 17.5649 53.2553 17.0131V9.99077C53.2553 9.43901 52.8039 8.98757 52.2521 8.98757ZM48.7409 8.98757C49.0168 8.98757 49.2425 9.21329 49.2425 9.48917C49.2425 9.76505 49.0168 9.99077 48.7409 9.99077C48.4651 9.99077 48.2393 9.76505 48.2393 9.48917C48.2393 9.21329 48.4651 8.98757 48.7409 8.98757ZM49.2425 16.0099H46.7345C46.4587 16.0099 46.233 15.7842 46.233 15.5083C46.233 15.2325 46.4587 15.0067 46.7345 15.0067H49.2425C49.5184 15.0067 49.7441 15.2325 49.7441 15.5083C49.7441 15.7842 49.5184 16.0099 49.2425 16.0099ZM50.7473 14.0035H46.7345C46.4587 14.0035 46.233 13.7778 46.233 13.5019C46.233 13.2261 46.4587 13.0003 46.7345 13.0003H50.7473C51.0232 13.0003 51.2489 13.2261 51.2489 13.5019C51.2489 13.7778 51.0232 14.0035 50.7473 14.0035ZM50.7473 11.9972H46.7345C46.4587 11.9972 46.233 11.7714 46.233 11.4956C46.233 11.2197 46.4587 10.994 46.7345 10.994H50.7473C51.0232 10.994 51.2489 11.2197 51.2489 11.4956C51.2489 11.7714 51.0232 11.9972 50.7473 11.9972Z" fill="#3AAD76"/>
</g>
<defs>
<clipPath id="clip0_4211_35704">
<rect width="12.0383" height="12.0383" fill="white" transform="translate(42.7227 7.48438)"/>
</clipPath>
</defs>
</svg>
