<svg width="50" height="50" viewBox="0 0 50 50" fill="none" xmlns="http://www.w3.org/2000/svg">
<rect width="50" height="50" rx="25" fill="#EAFBFF"/>
<path d="M33.1667 14.5013H28.29C27.8 13.148 26.5167 12.168 25 12.168C23.4833 12.168 22.2 13.148 21.71 14.5013H16.8333C15.55 14.5013 14.5 15.5513 14.5 16.8346V33.168C14.5 34.4513 15.55 35.5013 16.8333 35.5013H33.1667C34.45 35.5013 35.5 34.4513 35.5 33.168V16.8346C35.5 15.5513 34.45 14.5013 33.1667 14.5013ZM25 14.5013C25.6417 14.5013 26.1667 15.0263 26.1667 15.668C26.1667 16.3096 25.6417 16.8346 25 16.8346C24.3583 16.8346 23.8333 16.3096 23.8333 15.668C23.8333 15.0263 24.3583 14.5013 25 14.5013ZM26.1667 30.8346H20.3333C19.6917 30.8346 19.1667 30.3096 19.1667 29.668C19.1667 29.0263 19.6917 28.5013 20.3333 28.5013H26.1667C26.8083 28.5013 27.3333 29.0263 27.3333 29.668C27.3333 30.3096 26.8083 30.8346 26.1667 30.8346ZM29.6667 26.168H20.3333C19.6917 26.168 19.1667 25.643 19.1667 25.0013C19.1667 24.3596 19.6917 23.8346 20.3333 23.8346H29.6667C30.3083 23.8346 30.8333 24.3596 30.8333 25.0013C30.8333 25.643 30.3083 26.168 29.6667 26.168ZM29.6667 21.5013H20.3333C19.6917 21.5013 19.1667 20.9763 19.1667 20.3346C19.1667 19.693 19.6917 19.168 20.3333 19.168H29.6667C30.3083 19.168 30.8333 19.693 30.8333 20.3346C30.8333 20.9763 30.3083 21.5013 29.6667 21.5013Z" fill="#31DBFF"/>
</svg>
