<svg width="557" height="84" viewBox="0 0 557 84" fill="none" xmlns="http://www.w3.org/2000/svg">
<path d="M50.46 1.07999C51.612 1.07999 52.6787 1.29333 53.66 1.71999C54.684 2.14666 55.5587 2.74399 56.284 3.51199C57.0093 4.27999 57.5853 5.17599 58.012 6.2C58.4387 7.18133 58.652 8.248 58.652 9.39999C58.652 10.552 58.4387 11.64 58.012 12.664C57.5853 13.6453 57.0093 14.52 56.284 15.288C55.5587 16.056 54.684 16.6533 53.66 17.08C52.6787 17.5067 51.612 17.72 50.46 17.72H17.18V36.152H42.14C43.292 36.152 44.3587 36.3867 45.34 36.856C46.364 37.3253 47.26 37.944 48.028 38.712C48.796 39.48 49.3933 40.3973 49.82 41.464C50.2467 42.488 50.46 43.576 50.46 44.728C50.46 45.88 50.2467 46.9467 49.82 47.928C49.3933 48.9093 48.796 49.7627 48.028 50.488C47.26 51.2133 46.364 51.7893 45.34 52.216C44.3587 52.6 43.292 52.792 42.14 52.792H17.18V74.808C17.18 75.96 16.9667 77.048 16.54 78.072C16.1133 79.0533 15.516 79.9067 14.748 80.632C13.98 81.3573 13.084 81.9333 12.06 82.36C11.0787 82.7867 10.012 83 8.86 83C7.708 83 6.62 82.7867 5.596 82.36C4.572 81.9333 3.676 81.3573 2.908 80.632C2.18267 79.864 1.60667 78.9893 1.18 78.008C0.753334 77.0267 0.54 75.96 0.54 74.808V9.07999C0.582667 8.184 0.753334 7.26667 1.052 6.328C1.35067 5.38933 1.82 4.536 2.46 3.768C3.1 3 3.932 2.36 4.956 1.848C6.02267 1.336 7.324 1.07999 8.86 1.07999H50.46ZM55.621 53.24C55.621 49.016 56.4317 45.0693 58.053 41.4C59.6743 37.688 61.8717 34.4453 64.645 31.672C67.4183 28.8987 70.6397 26.7227 74.309 25.144C78.021 23.5227 81.9677 22.712 86.149 22.712C90.2877 22.712 94.1917 23.5013 97.861 25.08C101.53 26.6587 104.73 28.8133 107.461 31.544C110.234 34.232 112.432 37.4107 114.053 41.08C115.674 44.7493 116.528 48.6533 116.613 52.792V52.92V53.24V74.488C116.613 75.64 116.378 76.7493 115.909 77.816C115.482 78.84 114.885 79.736 114.117 80.504C113.349 81.272 112.453 81.8907 111.429 82.36C110.405 82.7867 109.296 83 108.101 83C106.522 83 105.136 82.6373 103.941 81.912C102.746 81.1867 101.808 80.2053 101.125 78.968C98.9063 80.4613 96.5383 81.6347 94.021 82.488C91.5037 83.3413 88.8797 83.768 86.149 83.768C81.9677 83.768 78.021 82.9787 74.309 81.4C70.6397 79.7787 67.4183 77.5813 64.645 74.808C61.8717 72.0347 59.6743 68.792 58.053 65.08C56.4317 61.368 55.621 57.4213 55.621 53.24ZM72.261 53.24C72.261 55.16 72.6237 56.9733 73.349 58.68C74.117 60.344 75.1197 61.816 76.357 63.096C77.637 64.3333 79.109 65.3147 80.773 66.04C82.4797 66.7653 84.2717 67.128 86.149 67.128C88.069 67.128 89.861 66.7653 91.525 66.04C93.2317 65.3147 94.7037 64.3333 95.941 63.096C97.1783 61.816 98.1597 60.344 98.885 58.68C99.6103 56.9733 99.973 55.16 99.973 53.24C99.973 51.32 99.6103 49.528 98.885 47.864C98.1597 46.1573 97.1783 44.6853 95.941 43.448C94.7037 42.168 93.2317 41.1653 91.525 40.44C89.861 39.7147 88.069 39.352 86.149 39.352C84.2717 39.352 82.4797 39.7147 80.773 40.44C79.109 41.1653 77.637 42.168 76.357 43.448C75.1197 44.6853 74.117 46.1573 73.349 47.864C72.6237 49.528 72.261 51.32 72.261 53.24ZM144.007 74.808C144.007 75.96 143.794 77.048 143.367 78.072C142.94 79.0533 142.343 79.9067 141.575 80.632C140.85 81.3573 139.996 81.9333 139.015 82.36C138.034 82.7867 136.988 83 135.879 83C134.727 83 133.639 82.7867 132.615 82.36C131.591 81.9333 130.674 81.3573 129.863 80.632C129.095 79.9067 128.476 79.0533 128.007 78.072C127.58 77.048 127.367 75.96 127.367 74.808V55.288V54.712C127.495 50.4453 128.412 46.4347 130.119 42.68C131.826 38.8827 134.108 35.576 136.967 32.76C139.826 29.944 143.154 27.704 146.951 26.04C150.748 24.376 154.78 23.5227 159.047 23.48H159.431C162.162 23.48 164.274 24.2693 165.767 25.848C167.303 27.384 168.071 29.3467 168.071 31.736C168.071 32.9307 167.836 34.04 167.367 35.064C166.94 36.088 166.322 36.984 165.511 37.752C164.743 38.4773 163.826 39.0533 162.759 39.48C161.735 39.9067 160.626 40.12 159.431 40.12C157.34 40.12 155.356 40.5253 153.479 41.336C151.644 42.104 150.023 43.1707 148.615 44.536C147.207 45.9013 146.098 47.5227 145.287 49.4C144.476 51.2347 144.05 53.1973 144.007 55.288V74.808ZM224.351 74.872C224.351 76.024 224.138 77.0907 223.711 78.072C223.284 79.0533 222.687 79.9067 221.919 80.632C221.194 81.3573 220.34 81.9333 219.359 82.36C218.378 82.7867 217.332 83 216.223 83C215.071 83 213.983 82.7867 212.959 82.36C211.935 81.9333 211.039 81.3573 210.271 80.632C209.503 79.9067 208.884 79.0533 208.415 78.072C207.946 77.0907 207.711 76.024 207.711 74.872V47.352C207.626 44.9627 206.815 43.0427 205.279 41.592C203.743 40.0987 201.802 39.352 199.455 39.352C198.346 39.352 197.279 39.544 196.255 39.928C195.274 40.312 194.399 40.8453 193.631 41.528C192.863 42.2107 192.244 43.0213 191.775 43.96C191.348 44.8987 191.135 45.9227 191.135 47.032V47.352V74.872C191.135 76.024 190.922 77.0907 190.495 78.072C190.068 79.0533 189.471 79.9067 188.703 80.632C187.978 81.3573 187.124 81.9333 186.143 82.36C185.162 82.7867 184.116 83 183.007 83C181.855 83 180.767 82.7867 179.743 82.36C178.719 81.9333 177.823 81.3573 177.055 80.632C176.287 79.9067 175.668 79.0533 175.199 78.072C174.73 77.0907 174.495 76.024 174.495 74.872V47.16C174.495 43.7893 175.135 40.632 176.415 37.688C177.738 34.7013 179.508 32.0987 181.727 29.88C183.988 27.6613 186.612 25.912 189.599 24.632C192.586 23.352 195.764 22.712 199.135 22.712C202.378 22.712 205.428 23.288 208.287 24.44C211.188 25.592 213.748 27.1707 215.967 29.176C218.271 27.1707 220.852 25.592 223.711 24.44C226.57 23.288 229.599 22.712 232.799 22.712C236.17 22.712 239.327 23.352 242.271 24.632C245.258 25.8693 247.839 27.576 250.015 29.752C252.234 31.8853 254.004 34.4027 255.327 37.304C256.692 40.2053 257.439 43.2987 257.567 46.584C257.61 46.7547 257.631 47.0107 257.631 47.352V74.872C257.631 76.024 257.418 77.0907 256.991 78.072C256.564 79.0533 255.967 79.9067 255.199 80.632C254.474 81.3573 253.62 81.9333 252.639 82.36C251.658 82.7867 250.612 83 249.503 83C248.351 83 247.263 82.7867 246.239 82.36C245.215 81.9333 244.319 81.3573 243.551 80.632C242.783 79.9067 242.164 79.0533 241.695 78.072C241.226 77.0907 240.991 76.024 240.991 74.872V47.352C240.948 46.1573 240.714 45.0693 240.287 44.088C239.86 43.1067 239.263 42.2747 238.495 41.592C237.77 40.8667 236.895 40.312 235.871 39.928C234.89 39.544 233.823 39.352 232.671 39.352C231.562 39.352 230.516 39.5653 229.535 39.992C228.554 40.376 227.679 40.9093 226.911 41.592C226.186 42.2747 225.588 43.0853 225.119 44.024C224.65 44.9627 224.394 45.9653 224.351 47.032V47.352V74.872ZM289.566 22.2V29.688H292.702C293.897 29.688 295.006 29.9013 296.03 30.328C297.054 30.7547 297.929 31.352 298.654 32.12C299.422 32.8453 300.019 33.72 300.446 34.744C300.873 35.7253 301.086 36.792 301.086 37.944C301.086 39.096 300.873 40.184 300.446 41.208C300.019 42.232 299.422 43.128 298.654 43.896C297.929 44.664 297.054 45.2613 296.03 45.688C295.006 46.1147 293.897 46.328 292.702 46.328H289.566V74.616C289.566 75.8107 289.353 76.92 288.926 77.944C288.499 78.968 287.902 79.864 287.134 80.632C286.409 81.3573 285.534 81.9333 284.51 82.36C283.529 82.7867 282.462 83 281.31 83C280.158 83 279.07 82.7867 278.046 82.36C277.022 81.9333 276.126 81.3573 275.358 80.632C274.633 79.864 274.035 78.968 273.566 77.944C273.139 76.92 272.926 75.8107 272.926 74.616V46.328H271.07C269.918 46.328 268.83 46.1147 267.806 45.688C266.825 45.2187 265.95 44.6 265.182 43.832C264.414 43.064 263.817 42.1893 263.39 41.208C262.963 40.184 262.75 39.096 262.75 37.944C262.75 36.792 262.963 35.7253 263.39 34.744C263.817 33.72 264.414 32.8453 265.182 32.12C265.95 31.352 266.825 30.7547 267.806 30.328C268.83 29.9013 269.918 29.688 271.07 29.688H272.926V22.072C272.926 19.1707 273.459 16.44 274.526 13.88C275.635 11.2773 277.129 9.016 279.006 7.09599C280.883 5.13333 283.081 3.57599 285.598 2.424C288.158 1.272 290.91 0.65333 293.854 0.567993C293.939 0.567993 294.025 0.567993 294.11 0.567993C294.238 0.52533 294.345 0.503998 294.43 0.503998C295.625 0.503998 296.734 0.738663 297.758 1.20799C298.782 1.63466 299.678 2.232 300.446 3C301.214 3.72533 301.811 4.6 302.238 5.62399C302.665 6.64799 302.878 7.75733 302.878 8.952C302.878 10.104 302.665 11.1707 302.238 12.152C301.811 13.1333 301.214 14.008 300.446 14.776C299.678 15.5013 298.782 16.0773 297.758 16.504C296.734 16.9307 295.625 17.144 294.43 17.144H294.238C293.001 17.2293 291.934 17.72 291.038 18.616C290.142 19.512 289.651 20.5787 289.566 21.816V22.072V22.2ZM326.135 54.2C326.135 56.0347 326.455 57.7413 327.095 59.32C327.778 60.8987 328.716 62.264 329.911 63.416C331.106 64.568 332.492 65.4853 334.071 66.168C335.65 66.808 337.378 67.128 339.255 67.128C341.09 67.128 342.732 66.808 344.183 66.168C345.634 65.4853 346.85 64.5467 347.831 63.352C348.855 62.1573 349.623 60.7707 350.135 59.192C350.69 57.6133 350.967 55.8853 350.967 54.008V31.736C350.967 30.584 351.202 29.5173 351.671 28.536C352.14 27.512 352.759 26.6373 353.527 25.912C354.295 25.144 355.191 24.5467 356.215 24.12C357.239 23.6933 358.327 23.48 359.479 23.48C360.631 23.48 361.698 23.6933 362.679 24.12C363.66 24.5467 364.514 25.144 365.239 25.912C365.964 26.6373 366.54 27.512 366.967 28.536C367.394 29.5173 367.607 30.584 367.607 31.736V53.688C367.607 57.8267 366.903 61.7307 365.495 65.4C364.087 69.0267 362.124 72.2053 359.607 74.936C357.132 77.6667 354.146 79.8213 350.647 81.4C347.191 82.9787 343.394 83.768 339.255 83.768C335.159 83.768 331.298 83 327.671 81.464C324.087 79.8853 320.93 77.752 318.199 75.064C315.511 72.376 313.378 69.24 311.799 65.656C310.263 62.0293 309.495 58.168 309.495 54.072V31.736C309.495 30.584 309.708 29.5173 310.135 28.536C310.562 27.512 311.138 26.6373 311.863 25.912C312.631 25.144 313.506 24.5467 314.487 24.12C315.511 23.6933 316.599 23.48 317.751 23.48C318.903 23.48 319.97 23.6933 320.951 24.12C321.975 24.5467 322.871 25.144 323.639 25.912C324.407 26.6373 325.004 27.512 325.431 28.536C325.9 29.5173 326.135 30.584 326.135 31.736V54.2ZM435.982 75C435.982 76.152 435.769 77.2187 435.342 78.2C434.915 79.1813 434.339 80.056 433.614 80.824C432.889 81.5493 432.035 82.1253 431.054 82.552C430.073 82.936 429.006 83.128 427.854 83.128C426.702 83.128 425.614 82.936 424.59 82.552C423.566 82.1253 422.649 81.5493 421.838 80.824C421.07 80.056 420.451 79.1813 419.982 78.2C419.555 77.2187 419.342 76.152 419.342 75V52.6C419.342 52.472 419.342 52.344 419.342 52.216C419.342 52.0453 419.363 51.896 419.406 51.768C419.321 50.0613 418.937 48.4613 418.254 46.968C417.614 45.432 416.739 44.1093 415.63 43C414.521 41.848 413.219 40.952 411.726 40.312C410.233 39.672 408.611 39.352 406.862 39.352C405.027 39.352 403.342 39.6933 401.806 40.376C400.313 41.016 399.011 41.912 397.902 43.064C396.835 44.216 396.003 45.5813 395.406 47.16C394.809 48.696 394.51 50.3813 394.51 52.216V75C394.51 76.152 394.297 77.2187 393.87 78.2C393.443 79.1813 392.867 80.056 392.142 80.824C391.417 81.5493 390.563 82.1253 389.582 82.552C388.601 82.936 387.534 83.128 386.382 83.128C385.23 83.128 384.142 82.936 383.118 82.552C382.094 82.1253 381.198 81.5493 380.43 80.824C379.662 80.056 379.043 79.1813 378.574 78.2C378.105 77.2187 377.87 76.152 377.87 75V52.6V52.28V52.216C377.87 48.12 378.617 44.28 380.11 40.696C381.603 37.112 383.651 33.9973 386.254 31.352C388.857 28.664 391.907 26.552 395.406 25.016C398.947 23.48 402.766 22.712 406.862 22.712C410.958 22.712 414.777 23.48 418.318 25.016C421.859 26.552 424.931 28.664 427.534 31.352C430.179 33.9973 432.249 37.112 433.742 40.696C435.235 44.28 435.982 48.12 435.982 52.216V52.536V52.6V75ZM504.613 53.176V53.24V53.56V53.688C504.528 57.8267 503.674 61.7307 502.053 65.4C500.432 69.0267 498.234 72.2053 495.461 74.936C492.688 77.6667 489.466 79.8213 485.797 81.4C482.128 82.9787 478.224 83.768 474.085 83.768C469.861 83.768 465.893 82.9787 462.181 81.4C458.512 79.7787 455.29 77.5813 452.517 74.808C449.786 72.0347 447.61 68.792 445.989 65.08C444.41 61.368 443.621 57.4213 443.621 53.24C443.621 49.016 444.41 45.0693 445.989 41.4C447.61 37.688 449.786 34.4453 452.517 31.672C455.29 28.8987 458.512 26.7227 462.181 25.144C465.893 23.5227 469.861 22.712 474.085 22.712C476.602 22.712 479.013 23.0107 481.317 23.608C483.621 24.2053 485.84 25.0373 487.973 26.104V9.144C487.973 7.94933 488.165 6.81866 488.549 5.752C488.976 4.68533 489.552 3.768 490.277 3C491.045 2.232 491.92 1.63466 492.901 1.20799C493.925 0.738663 495.034 0.503998 496.229 0.503998C497.381 0.503998 498.469 0.738663 499.493 1.20799C500.517 1.63466 501.413 2.232 502.181 3C502.949 3.768 503.546 4.68533 503.973 5.752C504.4 6.81866 504.613 7.94933 504.613 9.144V53.176ZM487.973 53.24C487.973 51.32 487.589 49.528 486.821 47.864C486.096 46.1573 485.093 44.6853 483.813 43.448C482.576 42.168 481.104 41.1653 479.397 40.44C477.733 39.7147 475.962 39.352 474.085 39.352C472.165 39.352 470.352 39.7147 468.645 40.44C466.981 41.1653 465.53 42.168 464.293 43.448C463.056 44.6853 462.074 46.1573 461.349 47.864C460.624 49.528 460.261 51.32 460.261 53.24C460.261 55.16 460.624 56.9733 461.349 58.68C462.074 60.344 463.056 61.816 464.293 63.096C465.53 64.3333 466.981 65.3147 468.645 66.04C470.352 66.7653 472.165 67.128 474.085 67.128C475.962 67.128 477.733 66.7653 479.397 66.04C481.104 65.3147 482.576 64.3333 483.813 63.096C485.093 61.816 486.096 60.344 486.821 58.68C487.589 56.9733 487.973 55.16 487.973 53.24ZM532.632 74.808C532.632 75.96 532.419 77.048 531.992 78.072C531.565 79.0533 530.968 79.9067 530.2 80.632C529.475 81.3573 528.621 81.9333 527.64 82.36C526.659 82.7867 525.613 83 524.504 83C523.352 83 522.264 82.7867 521.24 82.36C520.216 81.9333 519.299 81.3573 518.488 80.632C517.72 79.9067 517.101 79.0533 516.632 78.072C516.205 77.048 515.992 75.96 515.992 74.808V55.288V54.712C516.12 50.4453 517.037 46.4347 518.744 42.68C520.451 38.8827 522.733 35.576 525.592 32.76C528.451 29.944 531.779 27.704 535.576 26.04C539.373 24.376 543.405 23.5227 547.672 23.48H548.056C550.787 23.48 552.899 24.2693 554.392 25.848C555.928 27.384 556.696 29.3467 556.696 31.736C556.696 32.9307 556.461 34.04 555.992 35.064C555.565 36.088 554.947 36.984 554.136 37.752C553.368 38.4773 552.451 39.0533 551.384 39.48C550.36 39.9067 549.251 40.12 548.056 40.12C545.965 40.12 543.981 40.5253 542.104 41.336C540.269 42.104 538.648 43.1707 537.24 44.536C535.832 45.9013 534.723 47.5227 533.912 49.4C533.101 51.2347 532.675 53.1973 532.632 55.288V74.808Z" fill="url(#paint0_linear_843_3697)"/>
<defs>
<linearGradient id="paint0_linear_843_3697" x1="276" y1="134" x2="276" y2="-7" gradientUnits="userSpaceOnUse">
<stop offset="0.196927" stop-color="#51F4A6"/>
<stop offset="0.625178" stop-color="white"/>
</linearGradient>
</defs>
</svg>
