<svg width="120" height="140" viewBox="0 0 120 140" fill="none" xmlns="http://www.w3.org/2000/svg">
<path d="M100 50C100 41.7775 97.9721 33.6818 94.0961 26.4302C90.22 19.1785 84.6153 12.9947 77.7785 8.42652C70.9417 3.85832 63.0838 1.04671 54.9009 0.240764C46.7179 -0.565187 38.4625 0.65939 30.8658 3.80602C23.2692 6.95266 16.5658 11.9242 11.3495 18.2803C6.13315 24.6364 2.56488 32.1809 0.960737 40.2455C-0.643404 48.31 -0.233897 56.6457 2.15298 64.5142C4.53986 72.3827 8.83044 79.5411 14.6447 85.3553L50 50H100Z" fill="#C9FCE3"/>
<path d="M20 90C20 98.2225 22.0279 106.318 25.9039 113.57C29.78 120.821 35.3847 127.005 42.2215 131.573C49.0583 136.142 56.9162 138.953 65.0991 139.759C73.2821 140.565 81.5375 139.341 89.1342 136.194C96.7308 133.047 103.434 128.076 108.651 121.72C113.867 115.364 117.435 107.819 119.039 99.7545C120.643 91.69 120.234 83.3543 117.847 75.4858C115.46 67.6173 111.17 60.4589 105.355 54.6447L70 90H20Z" fill="#C9FCE3"/>
</svg>
